<svg viewBox="0 0 200 188" fill="none" xmlns="http://www.w3.org/2000/svg">
<g clip-path="url(#clip0)">
<path d="M90.4368 15.5372C53.7362 -20.8329 -15.0898 10.1002 2.96382 72.493C10.7334 99.3027 79.5794 166.544 99.9898 186L106 93.0236L99.9898 25.0041L90.4368 15.5372Z" fill="#0AC682"/>
<path d="M109.559 15.7366L100.005 25.2913V187.774L100.005 187.774C129.63 159.297 119.912 167.196 167.694 116.907C184.766 96.8381 194.366 82.5472 197.044 73.218C215.033 10.5355 146.51 -21.2148 109.559 15.7366V15.7366Z" fill="#0BBD7D"/>
<path d="M99.9446 89.4248L77.6315 65H11V81.7611H69.4153L99.9446 115L107 104L116 88.4655L109.251 78.0731L99.9446 89.4248Z" fill="#E7F3FF"/>
<path d="M155.269 76.4363L129.086 47L100 89.5097V115L130.55 72.3505L149.094 93.1977H182V76.4363H155.269Z" fill="#CBE5FF"/>
</g>
<defs>
<clipPath id="clip0">
<rect width="200" height="188" fill="white"/>
</clipPath>
</defs>
</svg>
